#N canvas 897 468 980 515 10;
#X obj 107 118 gemhead;
#X obj 247 64 gemwin;
#X msg 247 22 dimen 640 480 \, create \, 1;
#X msg 409 46 destroy;
#X obj 22 373 pix_texture;
#X msg 416 24 lighting 1;
#X obj 416 2 loadbang;
#X obj 170 119 gemhead;
#N canvas 1 151 319 137 pix_info 0;
#X obj -17 39 pix_info ____________________;
#X floatatom -28 77 5 0 0 0 - - -, f 5;
#X floatatom 7 78 5 0 0 0 - - -, f 5;
#X floatatom 42 81 5 0 0 0 - - -, f 5;
#X floatatom 84 83 5 0 0 0 - - -, f 5;
#X floatatom 125 80 5 0 0 0 - - -, f 5;
#X floatatom 168 79 5 0 0 0 - - -, f 5;
#X obj -17 12 inlet;
#X connect 0 1 1 0;
#X connect 0 2 2 0;
#X connect 0 3 3 0;
#X connect 0 4 4 0;
#X connect 0 5 5 0;
#X connect 0 6 6 0;
#X connect 7 0 0 0;
#X restore 22 437 pd pix_info;
#X obj -44 6 cnv 15 250 60 empty empty empty 20 12 0 14 -232576 -66577
0;
#X text -36 25 (C)2011/2012 Matthias Kronlachner;
#X text -38 45 depends on OpenNI \, NITE and SensorKinect;
#X text 71 326 RGB Image;
#N canvas 414 365 456 224 tracking_data 0;
#X obj 32 198 gem_sceleton;
#N canvas 632 230 675 356 status_msg 0;
#X obj 79 46 inlet;
#X obj 79 217 text3d;
#X obj 79 125 list trim;
#X obj 174 166 loadbang;
#X obj 215 55 gemhead 20;
#X obj 215 80 alpha 1;
#X obj 215 128 color 1 1 1 0;
#X obj 353 69 line;
#X msg 353 105 1 1 1 \$1;
#X msg 353 43 0 1000;
#X obj 79 81 t a b b;
#X obj 79 102 list prepend text;
#X obj 353 7 delay 1500;
#X msg 112 187 6;
#X msg 174 190 justify left base;
#X obj 215 106 translateXYZ -5 -3.5 0;
#X msg 282 7 1 200;
#X text 87 236 post new_user ....;
#X obj 359 231 color 0 0 0 0;
#X obj 359 157 gemhead 19;
#X obj 359 203 translateXYZ -5 -3.5 0;
#X obj 359 282 rectangle 2.6 0.3;
#X obj 359 259 translateXYZ 2.4 0.12 0;
#X obj 359 179 alpha 1;
#X msg 426 109 0 0 0 \$1;
#X text 61 11 the "rest" are status messages;
#X connect 0 0 10 0;
#X connect 2 0 1 0;
#X connect 3 0 13 0;
#X connect 3 0 14 0;
#X connect 4 0 5 0;
#X connect 5 0 15 0;
#X connect 6 0 1 0;
#X connect 7 0 8 0;
#X connect 7 0 24 0;
#X connect 8 0 6 1;
#X connect 9 0 7 0;
#X connect 10 0 11 0;
#X connect 10 1 16 0;
#X connect 10 2 12 0;
#X connect 11 0 2 0;
#X connect 12 0 9 0;
#X connect 13 0 1 1;
#X connect 14 0 1 0;
#X connect 15 0 6 0;
#X connect 16 0 7 0;
#X connect 18 0 22 0;
#X connect 19 0 23 0;
#X connect 20 0 18 0;
#X connect 22 0 21 0;
#X connect 23 0 20 0;
#X connect 24 0 18 1;
#X restore 209 109 pd status_msg;
#N canvas 732 158 545 513 hand 0;
#X obj 20 32 inlet;
#X text 74 32 display hand tracking;
#X obj 20 96 unpack f f f f;
#X floatatom 57 140 5 0 0 0 - - -, f 5;
#X floatatom 95 138 5 0 0 0 - - -, f 5;
#X floatatom 132 139 5 0 0 0 - - -, f 5;
#X floatatom 20 140 5 0 0 0 - - -, f 5;
#X obj 86 188 gemhead;
#X obj 86 280 translateXYZ;
#X obj 86 379 sphere 0.1;
#X obj 172 351 separator;
#X obj 86 323 t a a;
#X obj 86 351 separator;
#X obj 171 455 text3d;
#X obj 267 393 loadbang;
#X msg 204 414 4;
#X obj 86 301 color 0 0.1 1;
#X msg -9 303 text hand \$1;
#X msg 267 417 justify center base;
#X obj 171 373 translateXYZ 0 -0.35 0.01;
#X obj 94 225 * 4;
#X obj 94 247 - 2;
#X obj 174 225 * -4;
#X obj 174 247 + 3;
#X obj 134 225 * -4;
#X obj 134 247 + 2;
#X msg 33 448 text hand;
#X obj 33 415 loadbang;
#X obj 142 63 route hand;
#X connect 0 0 2 0;
#X connect 2 0 6 0;
#X connect 2 0 17 0;
#X connect 2 1 3 0;
#X connect 2 1 20 0;
#X connect 2 2 4 0;
#X connect 2 2 24 0;
#X connect 2 3 5 0;
#X connect 2 3 22 0;
#X connect 7 0 8 0;
#X connect 8 0 16 0;
#X connect 10 0 19 0;
#X connect 11 0 12 0;
#X connect 11 1 10 0;
#X connect 12 0 9 0;
#X connect 14 0 15 0;
#X connect 14 0 18 0;
#X connect 15 0 13 1;
#X connect 16 0 11 0;
#X connect 17 0 13 0;
#X connect 18 0 13 0;
#X connect 19 0 13 0;
#X connect 20 0 21 0;
#X connect 21 0 8 1;
#X connect 22 0 23 0;
#X connect 23 0 8 3;
#X connect 24 0 25 0;
#X connect 25 0 8 2;
#X connect 26 0 13 0;
#X connect 27 0 26 0;
#X restore 76 177 pd hand;
#X obj 32 18 inlet;
#N canvas 329 329 585 405 user_center_of_mass 0;
#X obj 35 42 inlet;
#X obj 35 70 route user;
#X obj 35 99 unpack f f f f f;
#X text 129 43 info about detected users;
#X text 122 69 user [id] [skeleton_is_tracking] [x] [y] [z];
#X obj 204 292 translateXYZ;
#X text 386 227 arg1: joint name;
#X obj 227 206 * 1;
#X obj 259 205 * 1;
#X obj 291 205 * 1;
#X obj 227 247 - 0;
#X obj 259 246 - 0;
#X obj 291 244 - 0;
#X obj 259 265 * -1;
#X obj 27 215 separator;
#X obj 204 317 color 1 1 1;
#X obj 371 199 r sceleton/z_offset;
#X obj 370 171 r sceleton/offset;
#X obj 371 140 r sceleton/z_scale;
#X obj 368 119 r sceleton/scale;
#X obj 27 194 r sceleton/gemhead;
#X obj 204 367 text3d;
#X obj 356 329 loadbang;
#X msg 295 350 4;
#X msg 356 353 justify center base;
#X obj 81 338 list trim;
#X obj 81 315 list prepend text;
#X obj 468 319 s \$0-prop;
#X msg 468 290 userinfo;
#X obj 468 269 metro 200;
#X obj 468 247 tgl 15 0 empty empty empty 17 7 0 10 -262144 -1 -1 0
1;
#X text 322 86 coordinates are center of mass of user;
#X connect 0 0 1 0;
#X connect 1 0 2 0;
#X connect 2 0 26 0;
#X connect 2 2 7 0;
#X connect 2 3 8 0;
#X connect 2 4 9 0;
#X connect 5 0 15 0;
#X connect 7 0 10 0;
#X connect 8 0 11 0;
#X connect 9 0 12 0;
#X connect 10 0 5 1;
#X connect 11 0 13 0;
#X connect 12 0 5 3;
#X connect 13 0 5 2;
#X connect 14 0 5 0;
#X connect 15 0 21 0;
#X connect 16 0 12 1;
#X connect 17 0 10 1;
#X connect 17 0 11 1;
#X connect 18 0 9 1;
#X connect 19 0 7 1;
#X connect 19 0 8 1;
#X connect 20 0 14 0;
#X connect 22 0 23 0;
#X connect 22 0 24 0;
#X connect 23 0 21 1;
#X connect 24 0 21 0;
#X connect 25 0 21 0;
#X connect 26 0 25 0;
#X connect 28 0 27 0;
#X connect 29 0 28 0;
#X connect 30 0 29 0;
#X restore 164 133 pd user_center_of_mass;
#N canvas 0 50 357 200 playback-info 0;
#X floatatom 32 113 5 0 0 0 - - -, f 5;
#X floatatom 69 112 5 0 0 0 - - -, f 5;
#X text 35 130 rgb;
#X obj 58 75 unpack 0 0 0 0;
#X floatatom 147 111 5 0 0 0 - - -, f 5;
#X floatatom 185 111 5 0 0 0 - - -, f 5;
#X text 185 129 total;
#X text 69 130 total;
#X text 147 130 depth;
#X text 36 143 cur;
#X text 151 143 cur;
#X obj 211 47 route playback;
#X obj 58 47 inlet;
#X text 90 20 get playback frame;
#X connect 3 0 0 0;
#X connect 3 1 1 0;
#X connect 3 2 4 0;
#X connect 3 3 5 0;
#X connect 12 0 3 0;
#X restore 120 156 pd playback-info;
#X text 68 35 messages look different if in OSC outputstyle mode!;
#X obj 32 55 route joint hand playback user;
#X connect 3 0 7 0;
#X connect 7 0 0 0;
#X connect 7 1 2 0;
#X connect 7 2 5 0;
#X connect 7 3 4 0;
#X connect 7 4 1 0;
#X restore 170 240 pd tracking_data;
#X text 193 194 tracking and info output;
#X obj 22 407 rectangle 1.5 1.15;
#X obj 167 373 pix_texture;
#N canvas 1 151 319 137 pix_info 0;
#X obj 10 48 pix_info ____________________;
#X floatatom -1 86 5 0 0 0 - - -, f 5;
#X floatatom 34 87 5 0 0 0 - - -, f 5;
#X floatatom 69 90 5 0 0 0 - - -, f 5;
#X floatatom 111 92 5 0 0 0 - - -, f 5;
#X floatatom 152 89 5 0 0 0 - - -, f 5;
#X floatatom 195 88 5 0 0 0 - - -, f 5;
#X obj 10 21 inlet;
#X obj -53 85 outlet;
#X connect 0 0 8 0;
#X connect 0 1 1 0;
#X connect 0 2 2 0;
#X connect 0 3 3 0;
#X connect 0 4 4 0;
#X connect 0 5 5 0;
#X connect 0 6 6 0;
#X connect 7 0 0 0;
#X restore 167 437 pd pix_info;
#X obj 167 407 rectangle 1.5 1.15;
#X obj 167 343 translateXYZ 0 2 0;
#N canvas 267 262 593 419 distance_measurement 0;
#X obj -87 48 inlet;
#X obj -177 95 pix_data;
#X floatatom -38 59 5 0 0 0 - - -, f 5;
#X floatatom -1 59 5 0 0 0 - - -, f 5;
#X floatatom -153 168 5 0 0 0 - - -, f 5;
#X floatatom -114 168 5 0 0 0 - - -, f 5;
#X msg -38 34 0.5;
#X obj -121 207 * 256;
#X obj -191 207 * 65536;
#X obj -191 237 +;
#X obj -177 53 metro 100;
#X obj -177 30 tgl 15 0 empty empty empty 17 7 0 10 -262144 -1 -1 0
1;
#X text -110 93 output pixel rgb value;
#X text -61 145 r g b;
#X text 41 58 x \, y pixel position in range 0 - 1;
#X text 140 70 (from depth image);
#X text -159 29 ON/OFF;
#X obj -191 319 nbx 5 60 -1e+37 1e+37 0 0 empty empty m 300 22 0 60
-262144 -1 -1 0 256;
#X obj -191 265 / 1000;
#X obj -38 12 loadbang;
#X text -165 237 16 bit;
#X obj 129 146 print;
#X obj 148 193 * 256;
#X floatatom 148 248 5 0 0 0 - - -, f 5;
#X text 185 248 user id;
#X obj 148 220 int;
#X text 176 217 due to numerical inaccuracy;
#X text -78 206 MSB and LSB 2x8 bits;
#X obj -155 146 unpack 0 0 0;
#X text 146 174 user id if usergen activated;
#X connect 0 0 1 1;
#X connect 1 1 28 0;
#X connect 2 0 1 2;
#X connect 3 0 1 3;
#X connect 6 0 2 0;
#X connect 6 0 3 0;
#X connect 7 0 9 1;
#X connect 8 0 9 0;
#X connect 9 0 18 0;
#X connect 10 0 1 0;
#X connect 11 0 10 0;
#X connect 18 0 17 0;
#X connect 19 0 6 0;
#X connect 22 0 25 0;
#X connect 25 0 23 0;
#X connect 28 0 4 0;
#X connect 28 0 8 0;
#X connect 28 1 5 0;
#X connect 28 1 7 0;
#X connect 28 2 22 0;
#X restore 167 470 pd distance_measurement;
#X text 183 326 DEPTH Image;
#X obj 22 344 translateXYZ -3.5 2 0;
#X obj 167 303 alpha;
#N canvas 104 124 721 288 RECORD 0;
#X obj 105 179 s \$0-prop;
#X obj 119 111 vradio 15 1 0 2 empty empty empty 0 -8 0 10 -262144
-1 -1 0;
#X text 141 109 OFF;
#X text 141 125 ON;
#X msg 119 145 record \$1;
#X obj 206 111 vradio 15 1 0 2 empty empty empty 0 -8 0 10 -262144
-1 -1 0;
#X text 228 109 OFF;
#X text 228 125 ON;
#X msg 206 145 play \$1;
#X msg 300 144 playback_speed \$1;
#X floatatom 300 122 5 0 0 0 - - -, f 5;
#X floatatom 298 199 5 0 0 0 - - -, f 5;
#X msg 298 221 jump_image_frame \$1;
#X floatatom 440 203 5 0 0 0 - - -, f 5;
#X msg 440 225 jump_depth_frame \$1;
#X msg 105 56 open hallo.oni;
#X obj -11 52 bng 15 250 50 0 empty empty empty 17 7 0 10 -262144 -1
-1;
#N canvas 110 287 200 194 open 0;
#X obj 38 87 list prepend open;
#X obj 38 112 list trim;
#X obj 38 51 openpanel;
#X obj 38 140 outlet;
#X obj 38 16 inlet;
#X connect 0 0 1 0;
#X connect 1 0 3 0;
#X connect 2 0 0 0;
#X connect 4 0 2 0;
#X restore -11 78 pd open;
#X obj 44 52 bng 15 250 50 0 empty empty empty 17 7 0 10 -262144 -1
-1;
#N canvas 110 287 200 194 save 0;
#X obj 38 87 list prepend open;
#X obj 38 112 list trim;
#X obj 38 140 outlet;
#X obj 38 16 inlet;
#X obj 38 51 savepanel;
#X connect 0 0 1 0;
#X connect 1 0 2 0;
#X connect 3 0 4 0;
#X connect 4 0 0 0;
#X restore 44 78 pd save;
#X text 339 120 this is not working very well;
#X text 503 24 you can now switch between;
#X text 502 43 playback and live;
#X text 495 73 playback speed is not realtime;
#X text 506 89 i don't know why...?;
#X text -6 15 record image and depth stream to .oni file and playback
;
#X text 117 94 start rec;
#X text 206 91 start play;
#X obj 298 250 s \$0-prop;
#X obj 440 247 s \$0-prop;
#X obj 300 166 s \$0-prop;
#X text -6 98 (same messages);
#X text 202 55 set the open/save filename/path;
#X connect 1 0 4 0;
#X connect 4 0 0 0;
#X connect 5 0 8 0;
#X connect 8 0 0 0;
#X connect 9 0 30 0;
#X connect 10 0 9 0;
#X connect 11 0 12 0;
#X connect 12 0 28 0;
#X connect 13 0 14 0;
#X connect 14 0 29 0;
#X connect 15 0 0 0;
#X connect 16 0 17 0;
#X connect 17 0 0 0;
#X connect 18 0 19 0;
#X connect 19 0 0 0;
#X restore -26 88 pd RECORD;
#N canvas 685 152 769 313 PROPERTIES 1;
#X obj 21 235 s \$0-prop;
#X msg 21 43 enumerate;
#X text 82 44 find how many devices are available;
#X text 84 189 close current device;
#X msg 47 187 close;
#X obj 39 74 hradio 15 1 0 8 empty empty empty 0 -8 0 10 -262144 -1
-1 1;
#X msg 39 93 open \$1;
#X text 162 74 opens given device with id (float) or URI (symbol);
#X msg 48 160 openBySerial @1106200041;
#X msg 40 140 openBySerial freenect1;
#X text 202 146 openBySerial let you select a device with its serial
;
#X text 247 161 serial should be a symbol (and reported as is by pix_openni2)
\, but for convinience you can use the special character @ to avoid
long number to be rounded.;
#X text 186 93 WARNING !!! IDs and URIs may change after re-plug \,
use Serial to be sure to open the righ device;
#X text 247 198 if a serial starts with a @ \, just prepend another
@;
#X connect 1 0 0 0;
#X connect 4 0 0 0;
#X connect 5 0 6 0;
#X connect 6 0 0 0;
#X connect 8 0 0 0;
#X connect 9 0 0 0;
#X restore 43 87 pd PROPERTIES;
#X text -34 7 pix_openni 0.12;
#X obj 351 214 print info;
#X obj 383 176 tgl 15 0 empty empty empty 17 7 0 10 -262144 -1 -1 0
1;
#X obj 351 193 spigot 1;
#X obj 107 155 pix_openni2;
#X obj 519 113 gemhead;
#X obj 434 368 pix_texture;
#X obj 582 114 gemhead;
#N canvas 1 151 319 137 pix_info 0;
#X obj -17 39 pix_info ____________________;
#X floatatom -28 77 5 0 0 0 - - -, f 5;
#X floatatom 7 78 5 0 0 0 - - -, f 5;
#X floatatom 42 81 5 0 0 0 - - -, f 5;
#X floatatom 84 83 5 0 0 0 - - -, f 5;
#X floatatom 125 80 5 0 0 0 - - -, f 5;
#X floatatom 168 79 5 0 0 0 - - -, f 5;
#X obj -17 12 inlet;
#X connect 0 1 1 0;
#X connect 0 2 2 0;
#X connect 0 3 3 0;
#X connect 0 4 4 0;
#X connect 0 5 5 0;
#X connect 0 6 6 0;
#X connect 7 0 0 0;
#X restore 434 432 pd pix_info;
#X obj 455 115 r \$0-prop;
#X text 483 321 RGB Image;
#N canvas 414 365 456 224 tracking_data 0;
#X obj 32 198 gem_sceleton;
#N canvas 632 230 675 356 status_msg 0;
#X obj 79 46 inlet;
#X obj 79 217 text3d;
#X obj 79 125 list trim;
#X obj 174 166 loadbang;
#X obj 215 55 gemhead 20;
#X obj 215 80 alpha 1;
#X obj 215 128 color 1 1 1 0;
#X obj 353 69 line;
#X msg 353 105 1 1 1 \$1;
#X msg 353 43 0 1000;
#X obj 79 81 t a b b;
#X obj 79 102 list prepend text;
#X obj 353 7 delay 1500;
#X msg 112 187 6;
#X msg 174 190 justify left base;
#X obj 215 106 translateXYZ -5 -3.5 0;
#X msg 282 7 1 200;
#X text 87 236 post new_user ....;
#X obj 359 231 color 0 0 0 0;
#X obj 359 157 gemhead 19;
#X obj 359 203 translateXYZ -5 -3.5 0;
#X obj 359 282 rectangle 2.6 0.3;
#X obj 359 259 translateXYZ 2.4 0.12 0;
#X obj 359 179 alpha 1;
#X msg 426 109 0 0 0 \$1;
#X text 61 11 the "rest" are status messages;
#X connect 0 0 10 0;
#X connect 2 0 1 0;
#X connect 3 0 13 0;
#X connect 3 0 14 0;
#X connect 4 0 5 0;
#X connect 5 0 15 0;
#X connect 6 0 1 0;
#X connect 7 0 8 0;
#X connect 7 0 24 0;
#X connect 8 0 6 1;
#X connect 9 0 7 0;
#X connect 10 0 11 0;
#X connect 10 1 16 0;
#X connect 10 2 12 0;
#X connect 11 0 2 0;
#X connect 12 0 9 0;
#X connect 13 0 1 1;
#X connect 14 0 1 0;
#X connect 15 0 6 0;
#X connect 16 0 7 0;
#X connect 18 0 22 0;
#X connect 19 0 23 0;
#X connect 20 0 18 0;
#X connect 22 0 21 0;
#X connect 23 0 20 0;
#X connect 24 0 18 1;
#X restore 209 109 pd status_msg;
#N canvas 732 158 545 513 hand 0;
#X obj 20 32 inlet;
#X text 74 32 display hand tracking;
#X obj 20 96 unpack f f f f;
#X floatatom 57 140 5 0 0 0 - - -, f 5;
#X floatatom 95 138 5 0 0 0 - - -, f 5;
#X floatatom 132 139 5 0 0 0 - - -, f 5;
#X floatatom 20 140 5 0 0 0 - - -, f 5;
#X obj 86 188 gemhead;
#X obj 86 280 translateXYZ;
#X obj 86 379 sphere 0.1;
#X obj 172 351 separator;
#X obj 86 323 t a a;
#X obj 86 351 separator;
#X obj 171 455 text3d;
#X obj 267 393 loadbang;
#X msg 204 414 4;
#X obj 86 301 color 0 0.1 1;
#X msg -9 303 text hand \$1;
#X msg 267 417 justify center base;
#X obj 171 373 translateXYZ 0 -0.35 0.01;
#X obj 94 225 * 4;
#X obj 94 247 - 2;
#X obj 174 225 * -4;
#X obj 174 247 + 3;
#X obj 134 225 * -4;
#X obj 134 247 + 2;
#X msg 33 448 text hand;
#X obj 33 415 loadbang;
#X obj 142 63 route hand;
#X connect 0 0 2 0;
#X connect 2 0 6 0;
#X connect 2 0 17 0;
#X connect 2 1 3 0;
#X connect 2 1 20 0;
#X connect 2 2 4 0;
#X connect 2 2 24 0;
#X connect 2 3 5 0;
#X connect 2 3 22 0;
#X connect 7 0 8 0;
#X connect 8 0 16 0;
#X connect 10 0 19 0;
#X connect 11 0 12 0;
#X connect 11 1 10 0;
#X connect 12 0 9 0;
#X connect 14 0 15 0;
#X connect 14 0 18 0;
#X connect 15 0 13 1;
#X connect 16 0 11 0;
#X connect 17 0 13 0;
#X connect 18 0 13 0;
#X connect 19 0 13 0;
#X connect 20 0 21 0;
#X connect 21 0 8 1;
#X connect 22 0 23 0;
#X connect 23 0 8 3;
#X connect 24 0 25 0;
#X connect 25 0 8 2;
#X connect 26 0 13 0;
#X connect 27 0 26 0;
#X restore 76 177 pd hand;
#X obj 32 18 inlet;
#N canvas 329 329 585 405 user_center_of_mass 0;
#X obj 35 42 inlet;
#X obj 35 70 route user;
#X obj 35 99 unpack f f f f f;
#X text 129 43 info about detected users;
#X text 122 69 user [id] [skeleton_is_tracking] [x] [y] [z];
#X obj 204 292 translateXYZ;
#X text 386 227 arg1: joint name;
#X obj 227 206 * 1;
#X obj 259 205 * 1;
#X obj 291 205 * 1;
#X obj 227 247 - 0;
#X obj 259 246 - 0;
#X obj 291 244 - 0;
#X obj 259 265 * -1;
#X obj 27 215 separator;
#X obj 204 317 color 1 1 1;
#X obj 371 199 r sceleton/z_offset;
#X obj 370 171 r sceleton/offset;
#X obj 371 140 r sceleton/z_scale;
#X obj 368 119 r sceleton/scale;
#X obj 27 194 r sceleton/gemhead;
#X obj 204 367 text3d;
#X obj 356 329 loadbang;
#X msg 295 350 4;
#X msg 356 353 justify center base;
#X obj 81 338 list trim;
#X obj 81 315 list prepend text;
#X obj 468 319 s \$0-prop;
#X msg 468 290 userinfo;
#X obj 468 269 metro 200;
#X obj 468 247 tgl 15 0 empty empty empty 17 7 0 10 -262144 -1 -1 0
1;
#X text 322 86 coordinates are center of mass of user;
#X connect 0 0 1 0;
#X connect 1 0 2 0;
#X connect 2 0 26 0;
#X connect 2 2 7 0;
#X connect 2 3 8 0;
#X connect 2 4 9 0;
#X connect 5 0 15 0;
#X connect 7 0 10 0;
#X connect 8 0 11 0;
#X connect 9 0 12 0;
#X connect 10 0 5 1;
#X connect 11 0 13 0;
#X connect 12 0 5 3;
#X connect 13 0 5 2;
#X connect 14 0 5 0;
#X connect 15 0 21 0;
#X connect 16 0 12 1;
#X connect 17 0 10 1;
#X connect 17 0 11 1;
#X connect 18 0 9 1;
#X connect 19 0 7 1;
#X connect 19 0 8 1;
#X connect 20 0 14 0;
#X connect 22 0 23 0;
#X connect 22 0 24 0;
#X connect 23 0 21 1;
#X connect 24 0 21 0;
#X connect 25 0 21 0;
#X connect 26 0 25 0;
#X connect 28 0 27 0;
#X connect 29 0 28 0;
#X connect 30 0 29 0;
#X restore 164 133 pd user_center_of_mass;
#N canvas 0 50 357 200 playback-info 0;
#X floatatom 32 113 5 0 0 0 - - -, f 5;
#X floatatom 69 112 5 0 0 0 - - -, f 5;
#X text 35 130 rgb;
#X obj 58 75 unpack 0 0 0 0;
#X floatatom 147 111 5 0 0 0 - - -, f 5;
#X floatatom 185 111 5 0 0 0 - - -, f 5;
#X text 185 129 total;
#X text 69 130 total;
#X text 147 130 depth;
#X text 36 143 cur;
#X text 151 143 cur;
#X obj 211 47 route playback;
#X obj 58 47 inlet;
#X text 90 20 get playback frame;
#X connect 3 0 0 0;
#X connect 3 1 1 0;
#X connect 3 2 4 0;
#X connect 3 3 5 0;
#X connect 12 0 3 0;
#X restore 120 156 pd playback-info;
#X text 68 35 messages look different if in OSC outputstyle mode!;
#X obj 32 55 route joint hand playback user;
#X connect 3 0 7 0;
#X connect 7 0 0 0;
#X connect 7 1 2 0;
#X connect 7 2 5 0;
#X connect 7 3 4 0;
#X connect 7 4 1 0;
#X restore 582 235 pd tracking_data;
#X text 605 189 tracking and info output;
#X obj 434 402 rectangle 1.5 1.15;
#X obj 579 368 pix_texture;
#N canvas 1 151 319 137 pix_info 0;
#X obj 10 48 pix_info ____________________;
#X floatatom -1 86 5 0 0 0 - - -, f 5;
#X floatatom 34 87 5 0 0 0 - - -, f 5;
#X floatatom 69 90 5 0 0 0 - - -, f 5;
#X floatatom 111 92 5 0 0 0 - - -, f 5;
#X floatatom 152 89 5 0 0 0 - - -, f 5;
#X floatatom 195 88 5 0 0 0 - - -, f 5;
#X obj 10 21 inlet;
#X obj -53 85 outlet;
#X connect 0 0 8 0;
#X connect 0 1 1 0;
#X connect 0 2 2 0;
#X connect 0 3 3 0;
#X connect 0 4 4 0;
#X connect 0 5 5 0;
#X connect 0 6 6 0;
#X connect 7 0 0 0;
#X restore 579 432 pd pix_info;
#X obj 579 402 rectangle 1.5 1.15;
#X obj 579 338 translateXYZ 0 2 0;
#N canvas 267 262 593 419 distance_measurement 0;
#X obj -87 48 inlet;
#X obj -177 95 pix_data;
#X floatatom -38 59 5 0 0 0 - - -, f 5;
#X floatatom -1 59 5 0 0 0 - - -, f 5;
#X floatatom -153 168 5 0 0 0 - - -, f 5;
#X floatatom -114 168 5 0 0 0 - - -, f 5;
#X msg -38 34 0.5;
#X obj -121 207 * 256;
#X obj -191 207 * 65536;
#X obj -191 237 +;
#X obj -177 53 metro 100;
#X obj -177 30 tgl 15 0 empty empty empty 17 7 0 10 -262144 -1 -1 0
1;
#X text -110 93 output pixel rgb value;
#X text -61 145 r g b;
#X text 41 58 x \, y pixel position in range 0 - 1;
#X text 140 70 (from depth image);
#X text -159 29 ON/OFF;
#X obj -191 319 nbx 5 60 -1e+37 1e+37 0 0 empty empty m 300 22 0 60
-262144 -1 -1 0 256;
#X obj -191 265 / 1000;
#X obj -38 12 loadbang;
#X text -165 237 16 bit;
#X obj 129 146 print;
#X obj 148 193 * 256;
#X floatatom 148 248 5 0 0 0 - - -, f 5;
#X text 185 248 user id;
#X obj 148 220 int;
#X text 176 217 due to numerical inaccuracy;
#X text -78 206 MSB and LSB 2x8 bits;
#X obj -155 146 unpack 0 0 0;
#X text 146 174 user id if usergen activated;
#X connect 0 0 1 1;
#X connect 1 1 28 0;
#X connect 2 0 1 2;
#X connect 3 0 1 3;
#X connect 6 0 2 0;
#X connect 6 0 3 0;
#X connect 7 0 9 1;
#X connect 8 0 9 0;
#X connect 9 0 18 0;
#X connect 10 0 1 0;
#X connect 11 0 10 0;
#X connect 18 0 17 0;
#X connect 19 0 6 0;
#X connect 22 0 25 0;
#X connect 25 0 23 0;
#X connect 28 0 4 0;
#X connect 28 0 8 0;
#X connect 28 1 5 0;
#X connect 28 1 7 0;
#X connect 28 2 22 0;
#X restore 579 465 pd distance_measurement;
#X text 595 321 DEPTH Image;
#X obj 434 339 translateXYZ -3.5 2 0;
#X obj 579 298 alpha;
#X obj 763 209 print info;
#X obj 795 171 tgl 15 0 empty empty empty 17 7 0 10 -262144 -1 -1 0
1;
#X obj 763 188 spigot 1;
#X obj 519 150 pix_openni2;
#X floatatom 493 274 5 0 0 0 - - -, f 5;
#X connect 0 0 30 0;
#X connect 2 0 1 0;
#X connect 3 0 1 0;
#X connect 4 0 15 0;
#X connect 5 0 1 0;
#X connect 6 0 5 0;
#X connect 7 0 30 1;
#X connect 15 0 8 0;
#X connect 16 0 18 0;
#X connect 17 0 20 0;
#X connect 18 0 17 0;
#X connect 19 0 16 0;
#X connect 22 0 4 0;
#X connect 23 0 19 0;
#X connect 28 0 29 1;
#X connect 29 0 27 0;
#X connect 30 0 22 0;
#X connect 30 1 23 0;
#X connect 30 2 13 0;
#X connect 30 2 29 0;
#X connect 31 0 51 0;
#X connect 32 0 39 0;
#X connect 33 0 51 1;
#X connect 35 0 51 0;
#X connect 39 0 34 0;
#X connect 40 0 42 0;
#X connect 41 0 44 0;
#X connect 42 0 41 0;
#X connect 43 0 40 0;
#X connect 46 0 32 0;
#X connect 47 0 43 0;
#X connect 49 0 50 1;
#X connect 50 0 48 0;
#X connect 51 0 46 0;
#X connect 51 1 47 0;
#X connect 51 2 37 0;
#X connect 51 2 50 0;
#X connect 52 0 46 2;
