#N canvas 199 598 703 344 10;
#X obj 242 60 gemhead;
#X obj 181 166 pix_texture;
#X obj 590 142 gemwin;
#X msg 590 89 create \, 1;
#X msg 603 120 destroy;
#X msg 123 103 enumerate;
#X obj 272 166 print OpenNI::status;
#X obj 181 227 pix_info ________________;
#X floatatom 200 264 5 0 0 0 - - -;
#X floatatom 240 268 5 0 0 0 - - -;
#X obj 124 84 gemhead;
#X msg 242 20 depth \$1;
#X obj 220 20 tgl 15 0 empty empty empty 17 7 0 10 -262144 -1 -1 0
1;
#X msg 113 22 close_device;
#X msg 7 30 device 1;
#X msg 20 49 device 0x41ede646;
#X msg 10 71 device 0x41ede644;
#X obj 121 122 pix_openni 1 1 1;
#X obj 18 166 pix_texture;
#X obj 18 227 pix_info ________________;
#X floatatom 37 264 5 0 0 0 - - -;
#X floatatom 77 268 5 0 0 0 - - -;
#X obj 18 188 translateXYZ -2 0 0;
#X obj 182 186 translateXYZ 2 0 0;
#X obj 182 207 square 2;
#X obj 18 208 square 2;
#X msg 578 64 color 0 0 1;
#X obj 585 42 loadbang;
#X msg 200 81 open freenect://0;
#X msg 250 103 close;
#X msg 353 80 open 1d27/0600@2/5;
#X msg 339 32 rgb \$1;
#X obj 339 13 tgl 15 0 empty empty empty 17 7 0 10 -262144 -1 -1 1
1;
#X connect 0 0 17 1;
#X connect 1 0 23 0;
#X connect 3 0 2 0;
#X connect 4 0 2 0;
#X connect 5 0 17 0;
#X connect 7 1 8 0;
#X connect 7 2 9 0;
#X connect 10 0 17 0;
#X connect 11 0 17 0;
#X connect 12 0 11 0;
#X connect 13 0 17 0;
#X connect 14 0 17 0;
#X connect 15 0 17 0;
#X connect 16 0 17 0;
#X connect 17 0 18 0;
#X connect 17 1 1 0;
#X connect 17 2 6 0;
#X connect 18 0 22 0;
#X connect 19 1 20 0;
#X connect 19 2 21 0;
#X connect 22 0 25 0;
#X connect 23 0 24 0;
#X connect 24 0 7 0;
#X connect 25 0 19 0;
#X connect 26 0 2 0;
#X connect 27 0 26 0;
#X connect 28 0 17 0;
#X connect 29 0 17 0;
#X connect 30 0 17 0;
#X connect 31 0 17 0;
#X connect 32 0 31 0;
