#N canvas 631 87 1103 473 10;
#X obj 324 212 gemhead;
#X obj 273 401 pix_texture;
#X msg 935 360 create \, 1;
#X msg 948 391 destroy;
#X msg 568 45 enumerate;
#X obj 346 280 print OpenNI::status;
#X obj 203 223 gemhead;
#X msg 226 147 depth \$1;
#X obj 226 129 tgl 15 0 empty empty empty 17 7 0 10 -262144 -1 -1 0
1;
#X obj 193 269 pix_openni 1 1 1;
#X obj 100 318 pix_texture;
#X obj 100 379 pix_info ________________;
#X floatatom 119 416 5 0 0 0 - - -;
#X floatatom 159 420 5 0 0 0 - - -;
#X obj 100 340 translateXYZ -2 0 0;
#X obj 274 421 translateXYZ 2 0 0;
#X msg 923 335 color 0 0 1;
#X obj 930 313 loadbang;
#X msg 99 35 open freenect://0;
#X msg 160 125 close;
#X msg 285 147 rgb \$1;
#X obj 285 129 tgl 15 0 empty empty empty 17 7 0 10 -262144 -1 -1 0
1;
#X text 94 16 open device by its URI;
#X text 527 24 enumerate connected devices;
#X obj 335 129 tgl 15 0 empty empty empty 17 7 0 10 -262144 -1 -1 0
1;
#X msg 335 147 ir \$1;
#X text 249 108 enable streams;
#X msg 112 59 open 1d27/0600@2/17;
#X text 144 106 close device;
#X msg 129 84 open;
#X obj 935 413 gemwin 60;
#X obj 99 295 alpha;
#X obj 124 277 tgl 15 0 empty empty empty 17 7 0 10 -262144 -1 -1 0
1;
#X floatatom 200 424 5 0 0 0 - - -;
#X text 162 85 with no argument it opens the first device found;
#X text 505 70 output :;
#X text 515 80 devices <number of devices>;
#X text 516 104 device <URI> <Vendor ID> <Product ID> <Vendor Name>
<Product Name> <serial>;
#X text 550 131 if serial is not available \, URI is duplicated;
#X text 547 147 BUT ! URI of a device changes when it is unplugged
!;
#X obj 467 222 route device;
#X text 506 94 and for each device (only symbol) :;
#X symbolatom 581 271 10 0 0 0 - - -;
#X obj 467 242 unpack s s s s s s;
#X msg 16 129 openBySerial \$1;
#X msg 581 326 symbol 1d27/0600@2/7;
#X obj 598 242 bng 15 250 50 0 empty empty empty 17 7 0 10 -262144
-1 -1;
#X msg 581 304 set symbol \$1;
#X msg 422 187 getVideoMode;
#X obj 761 322 /;
#X msg 761 302 1000 \$1;
#X obj 761 363 i;
#X obj 761 342 + 0.5;
#X obj 761 384 change;
#X obj 761 241 sel 1;
#X msg 761 220 \$1;
#X floatatom 761 406 5 0 0 0 - - -;
#X obj 761 260 t b b;
#X obj 761 281 realtime;
#X obj 100 360 rectangle 2 1.5;
#X obj 273 381 ../pix_depth2rgba/pix_depth2rgba;
#X obj 274 442 rectangle 2 1.5;
#X obj 259 306 separator;
#X obj 193 291 t a a;
#X obj 259 328 pix_separator;
#X connect 1 0 15 0;
#X connect 2 0 30 0;
#X connect 3 0 30 0;
#X connect 4 0 9 0;
#X connect 6 0 9 0;
#X connect 7 0 9 0;
#X connect 8 0 7 0;
#X connect 9 0 63 0;
#X connect 9 2 5 0;
#X connect 9 2 40 0;
#X connect 10 0 14 0;
#X connect 11 1 12 0;
#X connect 11 2 13 0;
#X connect 11 3 33 0;
#X connect 11 6 55 0;
#X connect 14 0 59 0;
#X connect 15 0 61 0;
#X connect 16 0 30 0;
#X connect 17 0 16 0;
#X connect 18 0 9 0;
#X connect 19 0 9 0;
#X connect 20 0 9 0;
#X connect 21 0 20 0;
#X connect 24 0 25 0;
#X connect 25 0 9 0;
#X connect 27 0 9 0;
#X connect 29 0 9 0;
#X connect 31 0 10 0;
#X connect 32 0 31 1;
#X connect 40 0 43 0;
#X connect 42 0 47 0;
#X connect 43 5 42 0;
#X connect 44 0 9 0;
#X connect 45 0 44 0;
#X connect 46 0 42 0;
#X connect 47 0 45 0;
#X connect 48 0 9 0;
#X connect 49 0 52 0;
#X connect 50 0 49 0;
#X connect 51 0 53 0;
#X connect 52 0 51 0;
#X connect 53 0 56 0;
#X connect 54 0 57 0;
#X connect 55 0 54 0;
#X connect 57 0 58 0;
#X connect 57 1 58 1;
#X connect 58 0 50 0;
#X connect 59 0 11 0;
#X connect 60 0 1 0;
#X connect 62 0 64 0;
#X connect 63 0 10 0;
#X connect 63 1 62 0;
#X connect 64 0 60 0;
